<svg width="203" height="378" viewBox="0 0 203 378" fill="none" xmlns="http://www.w3.org/2000/svg">
<path d="M134.569 183.06C156.429 188.46 173.22 199.26 184.942 215.46C196.981 231.3 203 251.82 203 277.02C203 309.42 192.387 334.44 171.161 352.08C150.251 369.36 119.204 378 78.0188 378H-75V0H68.5145C105.581 0 134.252 8.46 154.528 25.38C175.121 42.3 185.417 66.24 185.417 97.2C185.417 118.08 180.823 135.9 171.636 150.66C162.765 165.06 150.41 175.86 134.569 183.06ZM145.024 177.472L-39.8342 170.1H66.1385C93.0672 170.1 113.818 164.34 128.391 152.82C142.965 140.94 150.251 123.84 150.251 101.52C150.251 79.2 142.965 62.28 128.391 50.76C113.818 38.88 181.457 50.76 154.528 50.76L145.024 177.472ZM77.5436 345.06C107.324 345.06 129.817 339.3 145.024 327.78C160.231 316.26 167.834 298.26 167.834 273.78C167.834 226.62 236.262 284.984 176.069 284.984L154.528 345.06H-39.8342H77.5436Z" fill="#E7BB0D"/>
</svg>
