<svg width="64" height="64" viewBox="0 0 64 64" fill="none" xmlns="http://www.w3.org/2000/svg">
<path d="M53.8479 62.0012C56.3023 62.0012 58.292 60.0115 58.292 57.5572C58.292 55.103 56.3023 53.1133 53.8479 53.1133C51.3936 53.1133 49.4038 55.103 49.4038 57.5572C49.4038 60.0115 51.3936 62.0012 53.8479 62.0012Z" fill="black" stroke="#E7BB0D" stroke-width="4" stroke-linecap="round" stroke-linejoin="round"/>
<path d="M24.221 62.0012C26.6753 62.0012 28.6651 60.0115 28.6651 57.5572C28.6651 55.103 26.6753 53.1133 24.221 53.1133C21.7665 53.1133 19.7769 55.103 19.7769 57.5572C19.7769 60.0115 21.7665 62.0012 24.221 62.0012Z" fill="black" stroke="#E7BB0D" stroke-width="4" stroke-linecap="round" stroke-linejoin="round"/>
<path d="M10.8882 8.67135H61.2549L55.3294 41.2603H16.8137L10.8882 8.67135ZM10.8882 8.67135C10.3944 6.69626 7.92549 2.74609 2 2.74609" stroke="#E7BB0D" stroke-width="4" stroke-linecap="round" stroke-linejoin="round"/>
<path d="M55.3295 41.2617H16.8138H11.572C6.28556 41.2617 3.48145 43.5761 3.48145 47.187C3.48145 50.7978 6.28556 53.1122 11.572 53.1122H53.8481" stroke="#E7BB0D" stroke-width="4" stroke-linecap="round" stroke-linejoin="round"/>
</svg>
