<svg width="65" height="65" viewBox="0 0 65 65" fill="none" xmlns="http://www.w3.org/2000/svg">
<path d="M2 32.5C2 49.3445 15.6553 63 32.5 63C49.3445 63 63 49.3445 63 32.5C63 15.6553 49.3445 2 32.5 2C15.6553 2 2 15.6553 2 32.5Z" stroke="#E7BB0D" stroke-width="4" stroke-linecap="round" stroke-linejoin="round"/>
<path d="M35.5498 2.15625C35.5498 2.15625 44.6998 14.2056 44.6998 32.5055C44.6998 50.8055 35.5498 62.8552 35.5498 62.8552" stroke="#E7BB0D" stroke-width="4" stroke-linecap="round" stroke-linejoin="round"/>
<path d="M29.4503 62.8552C29.4503 62.8552 20.3003 50.8055 20.3003 32.5055C20.3003 14.2056 29.4503 2.15625 29.4503 2.15625" stroke="#E7BB0D" stroke-width="4" stroke-linecap="round" stroke-linejoin="round"/>
<path d="M3.9209 43.1758H61.0802" stroke="#E7BB0D" stroke-width="4" stroke-linecap="round" stroke-linejoin="round"/>
<path d="M3.9209 21.8242H61.0802" stroke="#E7BB0D" stroke-width="4" stroke-linecap="round" stroke-linejoin="round"/>
</svg>
