<svg width="65" height="68" viewBox="0 0 65 68" fill="none" xmlns="http://www.w3.org/2000/svg">
<path d="M62.021 2L58.6865 5.33436" stroke="#E7BB0D" stroke-width="4" stroke-linecap="round" stroke-linejoin="round"/>
<path d="M2 2L5.33451 5.33436" stroke="#E7BB0D" stroke-width="4" stroke-linecap="round" stroke-linejoin="round"/>
<path d="M62.021 48.682L58.6865 45.3477" stroke="#E7BB0D" stroke-width="4" stroke-linecap="round" stroke-linejoin="round"/>
<path d="M2 48.682L5.33451 45.3477" stroke="#E7BB0D" stroke-width="4" stroke-linecap="round" stroke-linejoin="round"/>
<path d="M22.0073 55.3477H42.0144" stroke="#E7BB0D" stroke-width="4" stroke-linecap="round" stroke-linejoin="round"/>
<path d="M25.3418 65.3555H38.6798" stroke="#E7BB0D" stroke-width="4" stroke-linecap="round" stroke-linejoin="round"/>
<path d="M32.0101 5.33594C18.6718 5.33594 11.8432 11.8389 12.0032 22.0077C12.0812 26.9656 13.67 30.3436 17.005 33.678C20.34 37.0123 22.0073 38.6795 22.0068 45.3482H42.0136C42.0143 38.6799 43.6816 37.0123 47.0151 33.6783C50.3492 30.344 51.9395 26.9656 52.0172 22.0077C52.1772 11.8389 45.3488 5.33594 32.0101 5.33594Z" stroke="#E7BB0D" stroke-width="4" stroke-linecap="round" stroke-linejoin="round"/>
</svg>
