<svg width="64" height="65" viewBox="0 0 64 65" fill="none" xmlns="http://www.w3.org/2000/svg">
<path d="M32 62.3555C48.5684 62.3555 62 48.9239 62 32.3555C62 15.7869 48.5684 2.35547 32 2.35547C15.4314 2.35547 2 15.7869 2 32.3555C2 48.9239 15.4314 62.3555 32 62.3555Z" stroke="#E7BB0D" stroke-width="4" stroke-linecap="round" stroke-linejoin="round"/>
<path d="M41.0005 21.8594C38.9455 19.8044 35.3266 18.375 32.0005 18.2855M32.0005 18.2855C28.0432 18.179 24.5005 19.9693 24.5005 24.8594C24.5005 33.8594 41.0005 29.3594 41.0005 38.3594C41.0005 43.4924 36.6091 45.698 32.0005 45.5324M32.0005 18.2855V12.8594M23.0005 41.3594C24.9339 43.9373 28.5289 45.4076 32.0005 45.5324M32.0005 45.5324V51.8594" stroke="#E7BB0D" stroke-width="4" stroke-linecap="round" stroke-linejoin="round"/>
</svg>
